#!OML:ASF I:\Actors\actors\Patient Classification 2\Patient 1\Session 1\actor1.ASF
:FULLY-SPECIFIED
:DEGREES
560
root -0.777259 18.6685 6.10981 2.05225 -2.26893 -4.78647
lowerback 2.43071 0.991832 3.04835
upperback -2.45408 1.49031 1.03609
thorax -3.84287 0.67198 -0.72454
lowerneck -11.6387 -1.82322 -0.362443
upperneck 18.2433 -2.93335 2.47139
head 7.57534 -1.19603 0.57849
rclavicle 2.27049e-014 1.59028e-015
rhumerus -51.0758 -4.71497 -84.2839
rradius 42.7181
rwrist 13.9077
rhand -11.787 -30.0042
rfingers 7.12502
rthumb 14.2623 -59.4945
lclavicle 2.27049e-014 1.59028e-015
lhumerus -43.0058 -0.121008 90.482
lradius 36.3295
lwrist -11.7413
lhand -4.60995 -24.783
lfingers 7.12502
lthumb 21.1681 4.08136
rfemur 0 0 0
rtibia 0
rfoot 0 0
rtoes 0
lfemur -4.13142 -8.06237 -9.39572
ltibia 22.6296
lfoot -25.0361 15.0582
ltoes -55.1158
561
root -0.776282 18.6692 6.10842 2.06465 -2.25463 -4.79533
lowerback 2.42306 0.982469 3.03454
upperback -2.45387 1.47698 1.03822
thorax -3.83913 0.665823 -0.713736
lowerneck -11.6559 -1.85194 -0.399417
upperneck 18.2621 -2.97434 2.51146
head 7.58644 -1.21404 0.593441
rclavicle 2.05866e-014 4.37326e-015
rhumerus -51.0765 -4.68338 -84.4591
rradius 42.7724
rwrist 13.9162
rhand -11.3335 -29.8515
rfingers 7.12502
rthumb 14.6992 -59.3104
lclavicle 2.05866e-014 4.37326e-015
lhumerus -43.0596 -0.12403 90.4985
lradius 36.3543
lwrist -11.683
lhand -4.60749 -24.7706
lfingers 7.12502
lthumb 21.1705 4.09347
rfemur 0 0 0
rtibia 0
rfoot 0 0
rtoes 0
lfemur -4.15628 -8.08092 -9.38817
ltibia 22.6322
lfoot -25.0343 15.0778
ltoes -55.1137
562
root -0.774551 18.6696 6.10829 2.07734 -2.2603 -4.79449
lowerback 2.38497 0.977985 3.01267
upperback -2.4425 1.4683 1.04204
thorax -3.80661 0.662733 -0.696234
lowerneck -11.5382 -1.80952 -0.340501
upperneck 18.1232 -2.91924 2.49408
head 7.51784 -1.18799 0.584764
rclavicle 2.64694e-014 1.0138e-014
rhumerus -51.0893 -4.5979 -84.6384
rradius 42.8798
rwrist 13.8564
rhand -9.94525 -29.2985
rfingers 7.12502
rthumb 16.0364 -58.6548
lclavicle 2.64694e-014 1.0138e-014
lhumerus -43.1085 -0.204984 90.5487
lradius 36.4092
lwrist -11.5993
lhand -4.57234 -24.6595
lfingers 7.12502
lthumb 21.2043 4.20074
rfemur 0 0 0
rtibia 0
rfoot 0 0
rtoes 0
lfemur -4.16911 -8.1442 -9.40262
ltibia 22.6375
lfoot -25.0846 15.1209
ltoes -55.0981
563
root -0.773004 18.6696 6.1083 2.08569 -2.28258 -4.78695
lowerback 2.35794 0.986643 2.98162
upperback -2.43787 1.47759 1.04948
thorax -3.78707 0.668642 -0.671152
lowerneck -11.4131 -1.77787 -0.308351
upperneck 17.9933 -2.87258 2.47016
head 7.45141 -1.16833 0.577539
rclavicle 5.21189e-015 6.36111e-015
rhumerus -51.121 -4.5212 -84.7805
rradius 42.9931
rwrist 13.8032
rhand -11.4516 -29.6994
rfingers 7.12502
rthumb 14.5855 -59.1666
lclavicle 5.21189e-015 6.36111e-015
lhumerus -43.1479 -0.30221 90.6092
lradius 36.4323
lwrist -11.5119
lhand -4.58287 -24.5764
lfingers 7.12502
lthumb 21.1942 4.28497
rfemur 0 0 0
rtibia 0
rfoot 0 0
rtoes 0
lfemur -4.17955 -8.19136 -9.42623
ltibia 22.648
lfoot -25.1274 15.1795
ltoes -55.1089
564
root -0.771795 18.6696 6.10808 2.07448 -2.28919 -4.80782
lowerback 2.36256 1.00485 2.99109
upperback -2.43243 1.50251 1.05487
thorax -3.78317 0.680965 -0.672272
lowerneck -11.4321 -1.80333 -0.344163
upperneck 18.0309 -2.90788 2.50072
head 7.46863 -1.18419 0.589754
rclavicle -1.16786e-015 2.78299e-015
rhumerus -51.1415 -4.4962 -84.9134
rradius 43.0689
rwrist 13.7634
rhand -11.5214 -29.6782
rfingers 7.12502
rthumb 14.5182 -59.1502
lclavicle -1.16786e-015 2.78299e-015
lhumerus -43.1418 -0.313757 90.6046
lradius 36.3859
lwrist -11.5694
lhand -4.5584 -24.651
lfingers 7.12502
lthumb 21.2177 4.20778
rfemur 0 0 0
rtibia 0
rfoot 0 0
rtoes 0
lfemur -4.16499 -8.19479 -9.41101
ltibia 22.6518
lfoot -25.1334 15.1938
ltoes -55.1099
565
root -0.769887 18.6696 6.1081 2.06816 -2.27393 -4.80281
lowerback 2.35405 1.02693 2.99948
upperback -2.42333 1.5312 1.03915
thorax -3.76734 0.695079 -0.694429
lowerneck -11.5187 -1.84704 -0.386537
upperneck 18.141 -2.97616 2.5648
head 7.52295 -1.21164 0.610018
rclavicle -4.06266e-015 6.36111e-015
rhumerus -51.1491 -4.47601 -85.055
rradius 43.1761
rwrist 13.6364
rhand -9.61749 -29.5072
rfingers 7.12502
rthumb 16.352 -58.8379
lclavicle -4.06266e-015 6.36111e-015
lhumerus -43.0974 -0.3314 90.5873
lradius 36.3093
lwrist -11.6603
lhand -4.59475 -24.7523
lfingers 7.12502
lthumb 21.1827 4.11034
rfemur 0 0 0
rtibia 0
rfoot 0 0
rtoes 0
lfemur -4.15086 -8.22445 -9.42302
ltibia 22.6493
lfoot -25.1747 15.1704
ltoes -55.0349
566
root -0.768669 18.6693 6.10751 2.09108 -2.26479 -4.77954
lowerback 2.31221 1.04659 2.97838
upperback -2.42401 1.55403 1.01435
thorax -3.74339 0.707006 -0.708519
lowerneck -11.6296 -1.91278 -0.49856
upperneck 18.2852 -3.07601 2.69716
head 7.5957 -1.25188 0.660705
rclavicle -2.57178e-015 -9.34288e-015
rhumerus -51.1494 -4.44748 -85.1943
rradius 43.3112
rwrist 13.5106
rhand -11.2934 -30.0581
rfingers 7.12502
rthumb 14.7378 -59.5141
lclavicle -2.57178e-015 -9.34288e-015
lhumerus -43.043 -0.347804 90.5565
lradius 36.2429
lwrist -11.7275
lhand -4.66534 -24.7945
lfingers 7.12502
lthumb 21.1149 4.07579
rfemur 0 0 0
rtibia 0
rfoot 0 0
rtoes 0
lfemur -4.18023 -8.20971 -9.44427
ltibia 22.6446
lfoot -25.1838 15.128
ltoes -55.0043
567
root -0.768411 18.6689 6.10572 2.12125 -2.25231 -4.78156
lowerback 2.27397 1.05183 2.95546
upperback -2.43025 1.55855 1.00908
thorax -3.72844 0.709976 -0.700632
lowerneck -11.7396 -1.96238 -0.6383
upperneck 18.4266 -3.1512 2.84463
head 7.66799 -1.28075 0.723443
rclavicle -1.01753e-014 3.97569e-015
rhumerus -51.1323 -4.38783 -85.3245
rradius 43.4039
rwrist 13.4429
rhand -11.2963 -30.1944
rfingers 7.12502
rthumb 14.735 -59.6506
lclavicle -1.01753e-014 3.97569e-015
lhumerus -42.9969 -0.281792 90.4906
lradius 36.2156
lwrist -11.8271
lhand -4.60259 -24.8657
lfingers 7.12502
lthumb 21.1752 3.99787
rfemur 0 0 0
rtibia 0
rfoot 0 0
rtoes 0
lfemur -4.22793 -8.14744 -9.4234
ltibia 22.6289
lfoot -25.1375 15.0531
ltoes -54.9893
